<svg id="Calque_1" data-name="Calque 1" xmlns="http://www.w3.org/2000/svg" viewBox="0 0 500 500"><defs><style>.cls-1{fill:#005194;}</style></defs><path class="cls-1" d="M402.51,461.21l1,1.73c2.82-.95,5.84-1.53,8.43-2.92,32.07-17.28,55-42.6,66.6-77.39,10.35-31,10.7-62.33,4.53-94-5.34-27.32-19.08-49.29-39.51-67.51-22.43-20-50.5-33.85-78.95-42.94-91.22-29.15-177.57-45.86-268.83-74.9C82.52,99.09,70.32,92.63,61,81.85c-8.73-10.12-9.8-21.35-2.71-32.6A71.63,71.63,0,0,1,69.43,35.93c4.79-4.57,10.4-8.28,15.45-12.59,2-1.68,3.37-4,5-6l-1.19-1.48c-2.16.93-4.51,1.56-6.44,2.82C58.76,34,40.68,54.24,28.68,79.68c-13,27.66-15.66,56.7-11,86.64,5.7,36.74,22.53,66.57,53.66,87.92A307.28,307.28,0,0,0,152.46,294c85.4,27.16,165.78,42.36,251.12,69.72,13.89,4.45,26.62,11.32,37,21.86,7.12,7.24,11.22,15.76,9.22,26.16a36.46,36.46,0,0,1-12.26,20.69c-9.26,8.06-19.2,15.34-28.78,23C406.55,457.19,404.59,459.27,402.51,461.21Z"/><path class="cls-1" d="M402.51,461.21c2.08-1.94,4-4,6.25-5.79,9.58-7.69,19.52-15,28.78-23A36.46,36.46,0,0,0,449.8,411.7c2-10.4-2.1-18.92-9.22-26.16-10.38-10.54-23.11-17.41-37-21.86C318.24,336.32,232.86,321.12,147.46,294c-29-9.23-56-21.49-81.13-38.72-26.18-20.07-43-52.18-48.66-88.92-4.65-29.94-2-59,11-86.64,12-25.44,30.08-45.65,53.61-61,1.93-1.26,4.28-1.89,6.44-2.82l1.19,1.48c-1.67,2-3.08,4.34-5,6-5,4.31-10.66,8-15.45,12.59A71.63,71.63,0,0,0,58.29,49.25c-7.09,11.25-6,22.48,2.71,32.6a76.2,76.2,0,0,0,34.8,22.47c91.26,29,177.61,43.75,268.83,72.9,28.45,9.09,58.52,22.92,80.95,42.94,20.43,18.22,32.17,41.19,37.51,68.51,6.17,31.63,7.82,63-2.53,94C468.93,417.42,444,442.74,412,460c-2.59,1.39-5.61,2-8.43,2.92Z"/></svg>